<svg xmlns="http://www.w3.org/2000/svg" width="160" height="160" viewBox="0 0 160 160">
  <defs>
    <linearGradient id="logoGradient" x1="0%" y1="0%" x2="100%" y2="100%">
      <stop offset="0%" style="stop-color:#FF9933;stop-opacity:1" />
      <stop offset="50%" style="stop-color:#FFFFFF;stop-opacity:1" />
      <stop offset="100%" style="stop-color:#138808;stop-opacity:1" />
    </linearGradient>
    <linearGradient id="leafGradient" x1="0%" y1="0%" x2="100%" y2="100%">
      <stop offset="0%" style="stop-color:#74c476;stop-opacity:1" />
      <stop offset="100%" style="stop-color:#238b45;stop-opacity:1" />
    </linearGradient>
    <linearGradient id="waterGradient" x1="0%" y1="0%" x2="100%" y2="100%">
      <stop offset="0%" style="stop-color:#4eb3d3;stop-opacity:1" />
      <stop offset="100%" style="stop-color:#2b8cbe;stop-opacity:1" />
    </linearGradient>
  </defs>
  
  <!-- Main circular background -->
  <circle cx="80" cy="80" r="75" fill="white" stroke="url(#logoGradient)" stroke-width="10" />
  
  <!-- Stylized wheat stalk -->
  <g transform="translate(50, 45) rotate(15)">
    <line x1="0" y1="0" x2="0" y2="70" stroke="#a1d99b" stroke-width="4" />
    <path d="M -5,15 L 0,5 L 5,15" stroke="#41ab5d" stroke-width="3" fill="none" />
    <path d="M -8,30 L 0,20 L 8,30" stroke="#41ab5d" stroke-width="3" fill="none" />
    <path d="M -10,45 L 0,35 L 10,45" stroke="#41ab5d" stroke-width="3" fill="none" />
    <path d="M -8,60 L 0,50 L 8,60" stroke="#41ab5d" stroke-width="3" fill="none" />
  </g>
  
  <!-- Stylized water flow (Pravah) -->
  <path d="M 40,90 C 60,80 80,100 100,90 S 130,80 150,90" stroke="url(#waterGradient)" stroke-width="5" fill="none" />
  <path d="M 40,100 C 60,90 80,110 100,100 S 130,90 150,100" stroke="url(#waterGradient)" stroke-width="4" fill="none" opacity="0.7" />
  <path d="M 40,110 C 60,100 80,120 100,110 S 130,100 150,110" stroke="url(#waterGradient)" stroke-width="3" fill="none" opacity="0.5" />
  
  <!-- Stylized leaf -->
  <path d="M 95,45 C 120,30 130,70 95,80 C 110,60 105,40 95,45 Z" fill="url(#leafGradient)" />
  
  <!-- The sun -->
  <circle cx="115" cy="35" r="15" fill="#FED976" />
  <g fill="none" stroke="#FED976" stroke-width="2">
    <line x1="115" y1="10" x2="115" y2="5" />
    <line x1="115" y1="65" x2="115" y2="60" />
    <line x1="90" y1="35" x2="85" y2="35" />
    <line x1="145" y1="35" x2="140" y2="35" />
    <line x1="97" y1="17" x2="94" y2="14" />
    <line x1="133" y1="53" x2="130" y2="50" />
    <line x1="97" y1="53" x2="94" y2="56" />
    <line x1="133" y1="17" x2="130" y2="14" />
  </g>
</svg>