<svg xmlns="http://www.w3.org/2000/svg" width="1920" height="1080" viewBox="0 0 1920 1080">
  <defs>
    <linearGradient id="bgGradient" x1="0%" y1="0%" x2="100%" y2="100%">
      <stop offset="0%" style="stop-color:#ffffd9;stop-opacity:0.7" />
      <stop offset="100%" style="stop-color:#edf8b1;stop-opacity:0.4" />
    </linearGradient>
    <!-- Pattern for market stalls -->
    <pattern id="stall-pattern" x="0" y="0" width="200" height="200" patternUnits="userSpaceOnUse">
      <rect x="10" y="10" width="180" height="180" rx="5" fill="#fef0d9" stroke="#fdd49e" stroke-width="1" opacity="0.2" />
      <rect x="30" y="30" width="140" height="30" rx="3" fill="#fc8d59" opacity="0.1" />
      <rect x="30" y="80" width="140" height="30" rx="3" fill="#fc8d59" opacity="0.1" />
      <rect x="30" y="130" width="140" height="30" rx="3" fill="#fc8d59" opacity="0.1" />
    </pattern>
  </defs>
  
  <!-- Background -->
  <rect width="100%" height="100%" fill="url(#bgGradient)" />
  
  <!-- Market stall patterns -->
  <rect x="0" y="0" width="1920" height="1080" fill="url(#stall-pattern)" opacity="0.4" />
  
  <!-- Decorative elements: Simplified buildings in the background -->
  <g opacity="0.15">
    <rect x="100" y="300" width="200" height="300" fill="#fdbb84" />
    <rect x="400" y="250" width="250" height="350" fill="#fdbb84" />
    <rect x="750" y="350" width="180" height="250" fill="#fdbb84" />
    <rect x="1050" y="320" width="220" height="280" fill="#fdbb84" />
    <rect x="1350" y="270" width="230" height="330" fill="#fdbb84" />
    <rect x="1650" y="300" width="200" height="300" fill="#fdbb84" />
    
    <!-- Windows -->
    <g fill="#fed976" opacity="0.5">
      <rect x="130" y="350" width="40" height="60" />
      <rect x="230" y="350" width="40" height="60" />
      <rect x="130" y="450" width="40" height="60" />
      <rect x="230" y="450" width="40" height="60" />
      
      <rect x="440" y="300" width="40" height="60" />
      <rect x="510" y="300" width="40" height="60" />
      <rect x="580" y="300" width="40" height="60" />
      <rect x="440" y="400" width="40" height="60" />
      <rect x="510" y="400" width="40" height="60" />
      <rect x="580" y="400" width="40" height="60" />
      <rect x="440" y="500" width="40" height="60" />
      <rect x="510" y="500" width="40" height="60" />
      <rect x="580" y="500" width="40" height="60" />
    </g>
  </g>
</svg>