<svg xmlns="http://www.w3.org/2000/svg" width="100" height="100" viewBox="0 0 24 24">
  <defs>
    <linearGradient id="grad1" x1="0%" y1="0%" x2="100%" y2="100%">
      <stop offset="0%" style="stop-color:#FF9933;stop-opacity:1" />
      <stop offset="100%" style="stop-color:#138808;stop-opacity:1" />
    </linearGradient>
  </defs>
  <circle cx="12" cy="12" r="10" fill="url(#grad1)" />
  <path d="M12,6c-3.3,0-6,2.7-6,6s2.7,6,6,6s6-2.7,6-6S15.3,6,12,6z M15,13h-2v2c0,0.6-0.4,1-1,1s-1-0.4-1-1v-2H9c-0.6,0-1-0.4-1-1
    s0.4-1,1-1h2V9c0-0.6,0.4-1,1-1s1,0.4,1,1v2h2c0.6,0,1,0.4,1,1S15.6,13,15,13z" fill="white"/>
  <path d="M7,6C4.8,6,3,7.8,3,10c0,2.2,1.8,4,4,4" stroke="white" stroke-width="1.5" fill="none"/>
  <path d="M17,6c2.2,0,4,1.8,4,4c0,2.2-1.8,4-4,4" stroke="white" stroke-width="1.5" fill="none"/>
</svg>
